HIERARCHY
ROOT Bip001_Pelvis
{
  OFFSET -0.518542 91.1688 -12.0061
  CHANNELS 6 Xposition Yposition Zposition Zrotation Xrotation Yrotation
  JOINT Bip001_Spine
  {
    OFFSET 1.44608e-005 10.4157 -0.0118244
    CHANNELS 3 Zrotation Xrotation Yrotation
    JOINT Bip001_L_Thigh
    {
      OFFSET 11.2582 -10.4157 0.0118432
      CHANNELS 3 Zrotation Xrotation Yrotation
      JOINT Bip001_L_Calf
      {
        OFFSET -0.720717 -44.8687 0.366937
        CHANNELS 3 Zrotation Xrotation Yrotation
        JOINT Bip001_L_Foot
        {
          OFFSET -0.664439 -41.3745 -3.62995
          CHANNELS 3 Zrotation Xrotation Yrotation
          JOINT Bip001_L_Toe0
          {
            OFFSET 0.0541048 -10.4146 13.4033
            CHANNELS 3 Zrotation Xrotation Yrotation
            End Site
            {
              OFFSET -1.04503e-005 0 7.70137
            }
          }
        }
      }
    }
    JOINT Bip001_R_Thigh
    {
      OFFSET -11.2582 -10.4156 0.0118122
      CHANNELS 3 Zrotation Xrotation Yrotation
      JOINT Bip001_R_Calf
      {
        OFFSET 0.72059 -44.8687 0.36676
        CHANNELS 3 Zrotation Xrotation Yrotation
        JOINT Bip001_R_Foot
        {
          OFFSET 0.664321 -41.3745 -3.62979
          CHANNELS 3 Zrotation Xrotation Yrotation
          JOINT Bip001_R_Toe0
          {
            OFFSET -0.05417 -10.4146 13.4033
            CHANNELS 3 Zrotation Xrotation Yrotation
            End Site
            {
              OFFSET -1.04873e-005 0 7.70137
            }
          }
        }
      }
    }
    JOINT Bip001_Spine1
    {
      OFFSET 1.90638e-005 14.8539 1.10727
      CHANNELS 3 Zrotation Xrotation Yrotation
      JOINT Bip001_Spine2
      {
        OFFSET 2.28934e-005 14.7848 -1.7233
        CHANNELS 3 Zrotation Xrotation Yrotation
        JOINT Bip001_Neck
        {
          OFFSET 2.24514e-005 15.6905 -0.498826
          CHANNELS 3 Zrotation Xrotation Yrotation
          JOINT Bip001_L_Clavicle
          {
            OFFSET 6.17691 -0.000591152 0.00852867
            CHANNELS 3 Zrotation Xrotation Yrotation
            JOINT Bip001_L_UpperArm
            {
              OFFSET 11.773 -0.0611878 0.00197697
              CHANNELS 3 Zrotation Xrotation Yrotation
              JOINT Bip001_L_Forearm
              {
                OFFSET 26.4515 0.0817569 -2.19579
                CHANNELS 3 Zrotation Xrotation Yrotation
                JOINT Bip001_L_Hand
                {
                  OFFSET 32.8679 0.156744 1.67111
                  CHANNELS 3 Zrotation Xrotation Yrotation
                  JOINT Bip001_L_Finger0
                  {
                    OFFSET 6.16272 -2.25228 6.01663
                    CHANNELS 3 Zrotation Xrotation Yrotation
                    End Site
                    {
                      OFFSET 4.30501 -1.46664 0.618137
                    }
                  }
                  JOINT Bip001_L_Finger1
                  {
                    OFFSET 11.2958 -0.718383 -0.201959
                    CHANNELS 3 Zrotation Xrotation Yrotation
                    End Site
                    {
                      OFFSET 6.31956 -0.405168 -0.0802288
                    }
                  }
                }
              }
            }
          }
          JOINT Bip001_R_Clavicle
          {
            OFFSET -6.17691 -0.000574027 0.00851165
            CHANNELS 3 Zrotation Xrotation Yrotation
            JOINT Bip001_R_UpperArm
            {
              OFFSET -11.773 -0.0611516 0.00194365
              CHANNELS 3 Zrotation Xrotation Yrotation
              JOINT Bip001_R_Forearm
              {
                OFFSET -26.4514 0.0822336 -2.19736
                CHANNELS 3 Zrotation Xrotation Yrotation
                JOINT Bip001_R_Hand
                {
                  OFFSET -32.8678 0.156816 1.67144
                  CHANNELS 3 Zrotation Xrotation Yrotation
                  JOINT Bip001_R_Finger0
                  {
                    OFFSET -6.1627 -2.25225 6.01669
                    CHANNELS 3 Zrotation Xrotation Yrotation
                    End Site
                    {
                      OFFSET -4.305 -1.46662 0.618133
                    }
                  }
                  JOINT Bip001_R_Finger1
                  {
                    OFFSET -11.2958 -0.718346 -0.201993
                    CHANNELS 3 Zrotation Xrotation Yrotation
                    End Site
                    {
                      OFFSET -6.31953 -0.405147 -0.0802474
                    }
                  }
                }
              }
            }
          }
          JOINT Bip001_Head
          {
            OFFSET 1.11782e-005 11.4912 2.09908
            CHANNELS 3 Zrotation Xrotation Yrotation
            End Site
            {
              OFFSET 2.95144e-005 21.2823 -2.83069e-005
            }
          }
        }
      }
    }
  }
}
MOTION
Frames:	9
Frame Time:	0.0333333
-10.2124 91.502 1.46725 0.718668 3.6425 -141.752 1.00106 2.84248 -2.67659 7.7432 -15.6657 1.96635 0.40941 40.5473 2.87578 -2.81735 -4.6223 19.257 -2.04549e-007 8.09012e-008 3.87095e-010 11.1134 -12.3491 21.4666 0.0921273 17.3942 4.68695 -5.00042 -1.81029 14.227 -4.70448e-007 -2.81696e-008 -1.67482e-006 -0.896651 4.85191 -0.221429 -0.896653 4.8519 -0.2215 0.903225 8.50789 -12.6209 -25.8051 -12.009 7.91929 -21.7406 67.2839 2.45103 -5.47454 4.65774 -77.2737 74.2634 10.0027 -44.7595 -1.59028e-015 4.2366e-015 1.61513e-016 -1.59028e-015 7.24477e-015 2.85753e-016 33.143 -0.0833827 11.8021 -0.0651192 65.362 38.1681 2.64629 0.743647 27.6501 0.730194 -31.6946 13.3298 -7.95139e-016 1.59028e-015 3.18055e-015 -1.59028e-015 1.59028e-015 2.98177e-015 -2.08654 1.39207 -19.8758 
-11.0613 91.6786 2.46879 1.31387 3.33222 -146.165 1.14991 2.73345 -2.22331 7.63393 -14.9566 1.51489 0.355288 36.9872 3.05668 -1.39932 -5.85443 15.7752 -2.04549e-007 8.09012e-008 3.87098e-010 10.2503 -12.6565 20.7521 0.0967951 16.1405 4.69894 -4.96005 -0.916585 15.7862 -4.70448e-007 -2.81696e-008 -1.67482e-006 -0.538416 4.60874 0.6783 -0.538413 4.60876 0.678329 -0.384475 8.33399 -11.5245 -25.1035 -11.2578 7.18228 -19.9936 66.9995 0.430082 -5.46827 4.6272 -76.9692 74.374 10.7959 -45.0135 1.59028e-015 3.03147e-015 -0 1.59028e-015 2.08724e-015 3.97569e-016 33.8756 -0.281007 10.9657 -1.57108 65.5182 39.5167 2.57976 0.706897 26.893 1.02082 -32.0644 13.1497 1.76556e-031 3.18055e-015 -3.18055e-015 4.30356e-031 4.77083e-015 -5.1684e-015 -2.21605 2.13967 -17.8321 
-11.8537 91.7793 3.42887 2.00088 2.89137 -149.862 1.32846 2.62738 -1.92961 7.1216 -14.591 0.928429 0.338691 35.6622 3.14812 -1.49976 -7.48677 14.5261 -2.04549e-007 8.09012e-008 3.87079e-010 9.77494 -13.1514 21.2598 0.103407 15.1447 4.71404 -5.02634 -0.160483 15.9364 -4.70448e-007 -2.81696e-008 -1.67482e-006 -0.120184 4.38366 1.25772 -0.120179 4.38364 1.25769 -1.62868 7.69777 -10.5393 -24.3466 -10.1706 6.78006 -19.1321 66.9044 -1.12867 -5.4528 4.55295 -76.1915 74.9035 10.997 -45.4454 7.95139e-016 1.83876e-015 -0 7.95139e-016 6.11263e-015 -0 34.3946 -0.111807 9.94252 -2.31347 65.4761 40.2215 2.51885 0.674146 26.2043 2.05074 -31.6621 13.7225 4.74495e-031 -3.18055e-015 8.54774e-015 1.59028e-015 -3.18056e-015 7.7526e-015 -2.42475 1.86274 -16.1546 
-12.6085 91.7892 4.30159 2.35091 2.57157 -152.546 1.42806 2.58488 -1.83136 6.45324 -13.8633 0.814382 0.335234 35.0976 3.21564 -0.985622 -8.56116 15.6358 -2.04549e-007 8.09012e-008 3.87095e-010 9.08519 -13.8101 19.8715 0.104732 14.9652 4.70584 -5.59545 0.332467 17.4365 -4.70448e-007 -2.81696e-008 -1.67482e-006 0.116065 4.29596 1.44856 0.116097 4.29599 1.44852 -2.2964 7.05594 -9.77881 -23.7769 -9.23223 6.55832 -18.988 66.9279 -1.98819 -5.438 4.48609 -75.5062 75.195 10.5956 -45.6102 -1.59028e-015 9.24349e-015 -7.95139e-016 -1.59028e-015 1.03865e-014 -0 34.9961 0.135723 8.97309 -2.58489 65.1166 40.337 2.44999 0.638259 25.4311 2.84694 -31.2542 14.0445 -1.59028e-015 3.18055e-015 2.38542e-015 -8.82782e-032 3.18056e-015 1.59028e-015 -2.77899 0.0202906 -14.5563 
-13.2539 91.9009 5.18713 2.68724 2.29154 -154.44 1.51605 2.54446 -1.90887 5.89749 -12.9848 1.0947 0.31128 33.0827 3.27281 -0.509065 -8.73965 16.9341 -2.04549e-007 8.09012e-008 3.87089e-010 8.42394 -14.0701 19.1033 0.10895 14.0006 4.68404 -5.50888 0.906792 18.371 -4.70448e-007 -2.81696e-008 -1.67482e-006 0.345117 4.22139 1.29173 0.3451 4.22142 1.29172 -2.62247 6.71709 -9.18841 -23.8402 -8.7049 6.25019 -19.8221 66.9765 -1.3024 -5.42378 4.42514 -74.9003 75.3098 10.361 -45.392 1.19271e-015 -3.47873e-015 1.59028e-015 7.95139e-016 -2.98177e-015 -0 35.9382 0.25416 8.23274 -5.26273 65.0793 42.4085 2.33885 0.582308 24.1919 4.06891 -31.7673 15.1355 -1.59028e-015 -6.36111e-015 -3.97569e-016 -1.59028e-015 -3.18056e-015 1.59028e-015 -2.60588 -1.18958 -13.1256 
-13.79 91.8876 6.16246 3.30056 1.92288 -155.823 1.62037 2.48994 -2.07722 6.49387 -12.7734 4.75566 0.302404 31.6664 3.27796 0.0360246 -9.06228 15.4379 -2.04549e-007 8.09012e-008 3.87105e-010 8.23196 -14.5574 19.5946 0.115858 12.9898 4.65773 -5.98718 2.17959 18.1392 -4.70448e-007 -2.81696e-008 -1.67482e-006 0.686887 4.12159 0.954552 0.686873 4.12161 0.954408 -2.94789 6.32659 -8.7027 -24.0038 -8.19376 6.08084 -21.1031 67.0669 0.0110349 -5.4151 4.38892 -74.5076 75.1743 10.2484 -45.0057 -4.96962e-016 -1.49089e-015 3.18055e-015 -1.09332e-015 -1.2424e-016 1.59028e-015 37.1506 0.479132 7.483 -8.06983 64.2554 42.9696 2.35652 0.591456 24.39 7.22699 -32.6337 19.1325 1.59028e-015 -6.36111e-015 8.74652e-015 2.64834e-031 -3.18056e-015 4.77083e-015 -2.42798 -1.73033 -12.0726 
-14.3122 91.7765 7.21843 3.7039 1.658 -156.993 1.72078 2.52257 -2.24857 7.2057 -12.9319 9.77603 0.309915 31.3159 3.3189 1.13829 -10.5698 13.4319 -2.04549e-007 8.09012e-008 3.87095e-010 7.98358 -15.3596 20.0444 0.119032 12.6824 4.61844 -5.83726 3.12679 17.9481 -4.70448e-007 -2.81696e-008 -1.67482e-006 0.991621 4.19426 0.620399 0.991657 4.19432 0.620072 -3.32369 5.64852 -8.30574 -23.6335 -7.39311 6.08725 -22.5355 67.2018 0.909798 -5.40383 4.34391 -74.0511 75.1377 10.0451 -44.855 -4.96962e-016 -3.05631e-015 -0 -0 -1.56543e-015 -0 38.163 0.93153 6.64501 -5.99734 61.0294 37.7465 2.52055 0.6755 26.2254 9.00453 -34.5587 23.4732 -1.32417e-031 9.54166e-015 7.95139e-016 -1.59028e-015 9.54167e-015 -1.59028e-015 -2.43057 -1.56376 -11.2649 
-14.8785 91.6516 8.32566 3.79244 1.73808 -157.992 1.8639 2.66628 -2.40368 6.73315 -12.9866 11.6985 0.30924 30.796 3.34457 1.92278 -11.1526 13.8682 -2.04549e-007 8.09012e-008 3.87111e-010 7.59581 -15.9488 20.8061 0.124771 12.6569 4.60905 -5.6717 3.70322 17.3527 -4.70448e-007 -2.81696e-008 -1.67482e-006 1.32206 4.48759 0.320186 1.32207 4.48767 0.319903 -3.25887 5.2259 -8.14045 -23.1863 -6.89689 6.13604 -23.8965 67.3728 1.24988 -5.38913 4.28706 -73.4623 75.0116 10.3662 -45.1906 8.0002e-032 -2.88238e-015 1.59028e-015 1.02072e-031 -3.67752e-015 1.59028e-015 37.0044 1.01333 6.39658 0.928018 53.3547 26.9731 2.9507 0.928996 31.1987 14.9107 -39.8284 32.2917 -3.18055e-015 -3.18055e-015 1.59028e-015 3.18055e-015 -3.18056e-015 3.18055e-015 -2.26515 -1.29381 -10.6694 
-15.3857 91.5855 9.46742 3.76472 1.69562 -158.467 1.95596 2.77656 -2.65439 5.6194 -13.6896 10.8285 0.312208 30.7937 3.39707 2.40638 -11.9617 15.2663 -2.04549e-007 8.09012e-008 3.87089e-010 7.18034 -16.5795 21.7126 0.128658 12.669 4.57236 -5.52759 4.09578 16.2102 -4.70448e-007 -2.81696e-008 -1.67482e-006 1.54967 4.71617 -0.167259 1.54968 4.71628 -0.167523 -2.82961 5.06814 -8.08694 -22.6262 -6.73978 6.31626 -25.7055 67.5568 2.22199 -5.38557 4.27357 -73.3143 74.0296 11.3503 -45.7142 -7.95139e-016 2.18663e-015 -1.59028e-015 -7.95139e-016 5.96354e-015 -3.18055e-015 35.4018 0.869407 6.37774 5.92056 41.8467 15.7967 3.66816 1.47919 40.2067 10.4274 -47.3895 34.844 3.18055e-015 3.18055e-015 6.36111e-015 -1.76556e-031 3.18056e-015 3.18055e-015 -2.25441 -0.641738 -10.1642 
